<svg width="23" height="16" viewBox="0 0 23 16" fill="none" xmlns="http://www.w3.org/2000/svg">
<path fill-rule="evenodd" clip-rule="evenodd" d="M20.1966 0.939754C21.1341 1.19126 21.8723 1.93233 22.1229 2.87343C22.5782 4.57908 22.5782 8.13784 22.5782 8.13784C22.5782 8.13784 22.5782 11.6965 22.1229 13.4024C21.8723 14.3433 21.1341 15.0844 20.1966 15.336C18.4976 15.793 11.6843 15.793 11.6843 15.793C11.6843 15.793 4.87107 15.793 3.17195 15.336C2.23454 15.0844 1.49623 14.3433 1.24569 13.4024C0.790405 11.6965 0.790405 8.13784 0.790405 8.13784C0.790405 8.13784 0.790405 4.57908 1.24569 2.87343C1.49623 1.93233 2.23454 1.19126 3.17195 0.939754C4.87107 0.482666 11.6843 0.482666 11.6843 0.482666C11.6843 0.482666 18.4976 0.482666 20.1966 0.939754ZM15.1481 8.13799L9.45356 11.3689V4.90677L15.1481 8.13799Z" fill="white"/>
</svg>
