<svg width="19" height="19" viewBox="0 0 19 19" fill="none" xmlns="http://www.w3.org/2000/svg">
<path d="M5.92278 0.269249C4.97251 0.314083 4.32357 0.465732 3.75626 0.688652C3.16913 0.917466 2.67149 1.22452 2.17635 1.72144C1.68121 2.21836 1.3763 2.71636 1.14909 3.30438C0.929206 3.87293 0.780235 4.5224 0.738258 5.4732C0.696282 6.424 0.686994 6.72962 0.691638 9.15494C0.696282 11.5803 0.707 11.8843 0.753084 12.837C0.798454 13.7871 0.949569 14.4359 1.17249 15.0034C1.40166 15.5905 1.70836 16.088 2.20546 16.5833C2.70257 17.0786 3.20021 17.3828 3.78967 17.6103C4.35769 17.8299 5.00734 17.9796 5.95797 18.0212C6.90859 18.0628 7.21457 18.0724 9.6392 18.0678C12.0638 18.0631 12.3691 18.0524 13.3217 18.0072C14.2743 17.962 14.9196 17.8099 15.4873 17.588C16.0744 17.3583 16.5722 17.0521 17.0672 16.5549C17.5622 16.0576 17.8669 15.5592 18.0939 14.9709C18.314 14.4028 18.4635 13.7532 18.5048 12.8033C18.5464 11.85 18.5562 11.5456 18.5516 9.12065C18.5469 6.69569 18.536 6.39167 18.4908 5.43926C18.4456 4.48686 18.2943 3.84007 18.0716 3.27223C17.8421 2.6851 17.5357 2.188 17.0388 1.69232C16.5419 1.19665 16.0432 0.892101 15.455 0.66561C14.8866 0.445727 14.2373 0.295863 13.2867 0.254781C12.336 0.213698 12.0301 0.203159 9.60454 0.207803C7.17903 0.212447 6.87537 0.222807 5.92278 0.269249ZM6.02709 16.4145C5.15631 16.3766 4.68349 16.2319 4.3684 16.1108C3.95114 15.9501 3.65391 15.7557 3.3399 15.4447C3.02588 15.1338 2.83296 14.8355 2.67006 14.4191C2.5477 14.104 2.40034 13.6317 2.35961 12.761C2.31532 11.8198 2.30603 11.5372 2.30085 9.1528C2.29567 6.76838 2.30478 6.48616 2.34604 5.54465C2.38319 4.67459 2.52877 4.20124 2.6497 3.88633C2.81046 3.46854 3.00408 3.17184 3.31578 2.85801C3.62748 2.54417 3.92488 2.3509 4.34161 2.188C4.65634 2.06511 5.12862 1.919 5.99905 1.87756C6.94092 1.8329 7.22315 1.82397 9.60722 1.81879C11.9913 1.81361 12.2742 1.82254 13.2165 1.86398C14.0865 1.90185 14.5601 2.04599 14.8746 2.16764C15.2921 2.3284 15.5891 2.52149 15.903 2.83372C16.2168 3.14595 16.4102 3.44228 16.5731 3.85989C16.6962 4.17373 16.8423 4.64583 16.8834 5.51679C16.9282 6.45866 16.9384 6.74106 16.9427 9.12494C16.947 11.5088 16.9386 11.7919 16.8973 12.7331C16.8593 13.6039 16.715 14.0769 16.5937 14.3923C16.4329 14.8094 16.2391 15.1068 15.9272 15.4204C15.6154 15.7341 15.3183 15.9274 14.9014 16.0903C14.587 16.213 14.1142 16.3595 13.2445 16.4009C12.3026 16.4452 12.0204 16.4545 9.63544 16.4597C7.25048 16.4648 6.96915 16.4552 6.02727 16.4145M13.3079 4.3645C13.3083 4.57648 13.3715 4.7836 13.4896 4.95965C13.6076 5.13571 13.7753 5.2728 13.9713 5.35357C14.1672 5.43435 14.3828 5.4552 14.5906 5.41347C14.7985 5.37174 14.9893 5.26932 15.1389 5.11915C15.2885 4.96898 15.3902 4.77781 15.4312 4.56982C15.4722 4.36184 15.4505 4.14637 15.369 3.95068C15.2875 3.75499 15.1498 3.58786 14.9733 3.47044C14.7968 3.35301 14.5895 3.29056 14.3775 3.29099C14.0933 3.29155 13.821 3.40496 13.6204 3.60628C13.4199 3.80759 13.3074 4.08032 13.3079 4.3645ZM5.03592 9.14673C5.04092 11.6796 7.09793 13.7282 9.63027 13.7234C12.1626 13.7185 14.2126 11.6617 14.2078 9.12887C14.203 6.59602 12.1454 4.54687 9.61276 4.55187C7.08007 4.55687 5.03109 6.61423 5.03592 9.14673ZM6.64459 9.14351C6.64342 8.5547 6.81689 7.97877 7.14305 7.48855C7.46921 6.99832 7.93341 6.61582 8.47696 6.38942C9.0205 6.16302 9.61898 6.10287 10.1967 6.2166C10.7744 6.33033 11.3055 6.61282 11.7226 7.02835C12.1398 7.44387 12.4244 7.97377 12.5404 8.55104C12.6564 9.12831 12.5987 9.72702 12.3744 10.2715C12.1502 10.8159 11.7695 11.2816 11.2806 11.6097C10.7916 11.9378 10.2164 12.1135 9.62759 12.1147C9.23661 12.1155 8.84931 12.0393 8.48779 11.8904C8.12628 11.7416 7.79763 11.5229 7.52062 11.247C7.24362 10.9711 7.02368 10.6433 6.87337 10.2824C6.72306 9.92148 6.64532 9.53448 6.64459 9.14351Z" fill="white"/>
</svg>
