<svg width="11" height="13" viewBox="0 0 11 13" fill="none" xmlns="http://www.w3.org/2000/svg">
<path d="M3.85156 2.77324C3.6875 2.77324 3.55469 2.63262 3.55469 2.46856C3.55469 2.30449 3.6875 2.16387 3.85156 2.16387C4.02344 2.16387 4.15625 2.30449 4.15625 2.46856C4.15625 2.63262 4.02344 2.77324 3.85156 2.77324ZM7.14844 2.77324C6.97656 2.77324 6.84375 2.63262 6.84375 2.46856C6.84375 2.30449 6.97656 2.16387 7.14844 2.16387C7.3125 2.16387 7.44531 2.30449 7.44531 2.46856C7.44531 2.63262 7.3125 2.77324 7.14844 2.77324ZM0.804688 4.21074C0.359375 4.21074 0 4.57012 0 5.00762V8.36699C0 8.8123 0.359375 9.17168 0.804688 9.17168C1.25 9.17168 1.60156 8.8123 1.60156 8.36699V5.00762C1.60156 4.57012 1.24219 4.21074 0.804688 4.21074ZM9.08594 4.35918H1.91406V9.56231C1.91406 10.0389 2.29688 10.4217 2.77344 10.4217H3.35156L3.35938 12.1951C3.35938 12.6404 3.71875 12.9998 4.15625 12.9998C4.60156 12.9998 4.96094 12.6404 4.96094 12.1951V10.4217H6.03906V12.1951C6.03906 12.6404 6.39844 12.9998 6.84375 12.9998C7.28906 12.9998 7.64844 12.6404 7.64844 12.1951V10.4217H8.23438C8.70313 10.4217 9.08594 10.0389 9.08594 9.56231V4.35918ZM7.27344 1.19512L7.82813 0.171679C7.85938 0.116992 7.84375 0.0466798 7.78906 0.0154299C7.73438 -0.00800775 7.66406 0.00761677 7.63281 0.0623043L7.07031 1.09355C6.59375 0.882617 6.0625 0.765429 5.5 0.765429C4.9375 0.765429 4.40625 0.882617 3.92969 1.09355L3.36719 0.0623043C3.33594 0.00761677 3.26562 -0.00800775 3.21094 0.0154299C3.15625 0.0466798 3.14063 0.116992 3.17188 0.171679L3.72656 1.19512C2.625 1.75762 1.88281 2.83574 1.88281 4.07793H9.10938C9.10938 2.83574 8.36719 1.75762 7.27344 1.19512ZM11 5.00762C11 4.5623 10.6406 4.21074 10.1953 4.21074C9.75781 4.21074 9.39844 4.5623 9.39844 5.00762V8.36699C9.39844 8.8123 9.75781 9.17168 10.1953 9.17168C10.6406 9.17168 11 8.8123 11 8.36699V5.00762Z" fill="white"/>
</svg>
