<svg width="12" height="13" viewBox="0 0 12 13" fill="none" xmlns="http://www.w3.org/2000/svg">
<path d="M11.0547 9.49219C10.5938 9.35156 10.1797 9.02344 9.82031 8.50781C9.46094 7.99219 9.28125 7.40625 9.28125 6.76563C9.28125 6.17188 9.45312 5.63281 9.78906 5.14844C9.97656 4.875 10.2734 4.57031 10.6797 4.22656C10.4141 3.89844 10.1406 3.63281 9.86719 3.44531C9.38281 3.10938 8.82812 2.9375 8.20312 2.9375C7.82031 2.9375 7.36719 3.03125 6.85156 3.20313C6.33594 3.38281 5.96094 3.46875 5.73438 3.46875C5.55469 3.46875 5.19531 3.39063 4.65625 3.23438C4.10938 3.07813 3.65625 3 3.27344 3C2.375 3 1.64062 3.375 1.05469 4.125C0.46875 4.88281 0.171875 5.85156 0.171875 7.04688C0.171875 8.32813 0.5625 9.63281 1.32031 10.9766C2.09375 12.3203 2.86719 13 3.67188 13C3.92969 13 4.27344 12.9141 4.70312 12.7344C5.125 12.5625 5.5 12.4766 5.8125 12.4766C6.13281 12.4766 6.53125 12.5547 6.99219 12.7266C7.46094 12.8906 7.82031 12.9766 8.08594 12.9766C8.75 12.9766 9.42188 12.4688 10.0938 11.4453C10.5469 10.7656 10.8594 10.1094 11.0547 9.49219ZM8.11719 0.328126C8.11719 0.273438 8.10938 0.226563 8.10938 0.171876C8.10156 0.125 8.08594 0.0703129 8.07031 0C7.16406 0.210938 6.50781 0.59375 6.11719 1.15625C5.72656 1.71875 5.52344 2.39063 5.50781 3.16406C5.875 3.13281 6.14062 3.08594 6.32031 3.03125C6.60156 2.9375 6.88281 2.75 7.16406 2.46875C7.49219 2.14063 7.73438 1.78125 7.89063 1.39063C8.03906 1.00781 8.11719 0.648438 8.11719 0.328126Z" fill="white"/>
</svg>
