<svg width="28" height="23" viewBox="0 0 28 23" fill="none" xmlns="http://www.w3.org/2000/svg">
<path fill-rule="evenodd" clip-rule="evenodd" d="M6.0998 1.0508C6.10175 0.872064 6.17488 0.701302 6.30332 0.575595C6.43177 0.449888 6.60515 0.379385 6.78582 0.379395H21.2519C21.4324 0.379254 21.6056 0.449796 21.7336 0.575606C21.8617 0.701415 21.9342 0.87226 21.9353 1.0508V4.74133L26.9565 6.07747C27.2926 6.16414 27.4879 6.5343 27.3903 6.89506L24.3696 18.0484L24.3689 21.3903C24.3689 21.5703 24.2966 21.743 24.168 21.8703C24.0393 21.9975 23.8648 22.0691 23.6829 22.0691H4.35187C4.16992 22.0691 3.99543 21.9975 3.86678 21.8703C3.73812 21.743 3.66585 21.5703 3.66585 21.3903V15.5579L0.666557 7.40619C0.537796 7.05534 0.699803 6.67213 1.02645 6.55466L6.0998 4.72775V1.0508ZM16.5138 3.29866L20.9975 4.49179V1.30513H7.03759V4.39006L15.1654 1.46325C15.4925 1.34578 15.8651 1.53634 15.9944 1.88719L16.5138 3.29866ZM24.1712 6.45116C24.0425 6.32388 23.868 6.25237 23.6861 6.25237H17.6006L16.9048 4.36151L26.42 6.89348L24.3704 14.4612L24.3721 6.93109C24.3721 6.75108 24.2998 6.57845 24.1712 6.45116ZM1.63316 7.32159L3.66585 12.8462V6.93109C3.66585 6.7926 3.70863 6.65848 3.78695 6.54601L1.63316 7.32159ZM15.1988 2.43661L16.6029 6.25237H4.60239L15.1988 2.43661ZM20.7962 11.9541C20.7593 11.9693 20.7196 11.9771 20.6796 11.9771H14.8943V10.4708H20.6796C20.7603 10.4708 20.8378 10.5026 20.8949 10.5591C20.952 10.6156 20.9841 10.6922 20.9841 10.7721V11.6753C20.9841 11.7149 20.9763 11.7541 20.961 11.7907C20.9458 11.8274 20.9234 11.8606 20.8951 11.8887C20.8668 11.9167 20.8332 11.9389 20.7962 11.9541ZM20.8947 17.6122C20.8376 17.6685 20.7602 17.7002 20.6796 17.7002H14.8943V16.194H20.6796C20.7603 16.194 20.8378 16.2257 20.8949 16.2822C20.952 16.3387 20.9841 16.4153 20.9841 16.4952V17.3995C20.9839 17.4793 20.9518 17.5558 20.8947 17.6122ZM21.8084 14.7499C21.7513 14.8064 21.6738 14.8381 21.5931 14.8381H14.8943V13.3319H21.5931C21.6738 13.332 21.7511 13.3638 21.8082 13.4203C21.8653 13.4767 21.8974 13.5533 21.8975 13.6331V14.5369C21.8975 14.6168 21.8655 14.6934 21.8084 14.7499ZM13.2162 14.1683C13.2153 13.939 13.1961 13.7101 13.1587 13.4838H9.71855V14.8413H11.6885C11.526 15.6688 10.7914 16.2686 9.71855 16.2686C8.52276 16.2686 7.55494 15.2678 7.55494 14.0847C7.55494 12.9017 8.52487 11.9008 9.71855 11.9008C10.2395 11.8925 10.743 12.0871 11.1201 12.4428L12.1629 11.4111C11.5013 10.7971 10.6251 10.4603 9.71802 10.4714C9.23453 10.4656 8.75469 10.5549 8.30632 10.7339C7.85795 10.913 7.44997 11.1784 7.10602 11.5146C6.76206 11.8508 6.48898 12.2512 6.3026 12.6926C6.11623 13.1341 6.02026 13.6077 6.02026 14.0861C6.02026 14.5644 6.11623 15.038 6.3026 15.4795C6.48898 15.9209 6.76206 16.3213 7.10602 16.6575C7.44997 16.9937 7.85795 17.2591 8.30632 17.4382C8.75469 17.6172 9.23453 17.7065 9.71802 17.7007C11.8289 17.7007 13.2162 16.2331 13.2162 14.1683Z" fill="white"/>
</svg>
