<svg width="27" height="30" viewBox="0 0 27 30" fill="none" xmlns="http://www.w3.org/2000/svg">
<path d="M26.43 22.9222C26.43 22.462 26.0487 22.0807 25.5886 22.0807H1.84143C1.38127 22.0807 1 22.462 1 22.9222V24.605C1 25.0652 1.38127 25.4465 1.84143 25.4465H25.5886C26.0487 25.4465 26.43 25.0652 26.43 24.605V22.9222ZM26.43 13.8818C26.43 13.4216 26.0487 13.0404 25.5886 13.0404H1.84143C1.38127 13.0404 1 13.4216 1 13.8818V15.5647C1 16.0248 1.38127 16.4061 1.84143 16.4061H25.5886C26.0487 16.4061 26.43 16.0248 26.43 15.5647V13.8818ZM26.43 4.84143C26.43 4.38127 26.0487 4 25.5886 4H1.84143C1.38127 4 1 4.38127 1 4.84143V6.5243C1 6.98446 1.38127 7.36573 1.84143 7.36573H25.5886C26.0487 7.36573 26.43 6.98446 26.43 6.5243V4.84143Z" fill="#2A86E5"/>
</svg>
