<svg width="39" height="38" viewBox="0 0 39 38" fill="none" xmlns="http://www.w3.org/2000/svg">
<path d="M23.2419 18.1429C23.2419 20.8996 20.9986 23.1429 18.2419 23.1429C15.4852 23.1429 13.2419 20.8996 13.2419 18.1429C13.2419 15.3862 15.4852 13.1429 18.2419 13.1429C20.9986 13.1429 23.2419 15.3862 23.2419 18.1429ZM28.9562 27.4286C28.9562 27.0491 28.7999 26.6808 28.5432 26.4241L24.7151 22.596C25.6191 21.2902 26.0991 19.7277 26.0991 18.1429C26.0991 13.8013 22.5834 10.2857 18.2419 10.2857C13.9004 10.2857 10.3848 13.8013 10.3848 18.1429C10.3848 22.4844 13.9004 26 18.2419 26C19.8267 26 21.3892 25.5201 22.695 24.6161L26.5232 28.433C26.7799 28.7009 27.1482 28.8571 27.5276 28.8571C28.3089 28.8571 28.9562 28.2098 28.9562 27.4286Z" fill="#E1541B"/>
</svg>
