<svg width="20" height="17" viewBox="0 0 20 17" fill="none" xmlns="http://www.w3.org/2000/svg">
<path d="M17.9441 4.65758C17.9568 4.83523 17.9568 5.01293 17.9568 5.19059C17.9568 10.6093 13.8325 16.853 6.29441 16.853C3.97207 16.853 1.81473 16.1804 0 15.0129C0.329961 15.051 0.647187 15.0637 0.989844 15.0637C2.90605 15.0637 4.67004 14.4165 6.07867 13.3124C4.27664 13.2743 2.76648 12.0941 2.24617 10.4698C2.5 10.5078 2.75379 10.5332 3.02031 10.5332C3.38832 10.5332 3.75637 10.4824 4.09898 10.3936C2.22082 10.0129 0.812148 8.36316 0.812148 6.37078V6.32004C1.35781 6.62461 1.99238 6.81496 2.66492 6.84031C1.56086 6.10426 0.837539 4.84793 0.837539 3.4266C0.837539 2.6652 1.04055 1.96723 1.3959 1.35809C3.41367 3.84539 6.44668 5.46973 9.84766 5.64742C9.78422 5.34285 9.74613 5.02562 9.74613 4.70836C9.74613 2.44945 11.5736 0.609375 13.8451 0.609375C15.0253 0.609375 16.0913 1.1043 16.84 1.90379C17.7664 1.72613 18.6547 1.38348 19.4416 0.913945C19.137 1.86574 18.4898 2.66523 17.6395 3.17281C18.4644 3.08402 19.2639 2.85555 19.9999 2.53832C19.4416 3.35047 18.7436 4.07379 17.9441 4.65758Z" fill="white"/>
</svg>
